<?xml version="1.0" standalone="no"?>
<!DOCTYPE svg PUBLIC "-//W3C//DTD SVG 20010904//EN"
 "http://www.w3.org/TR/2001/REC-SVG-20010904/DTD/svg10.dtd">
<svg version="1.0" xmlns="http://www.w3.org/2000/svg"
 width="151.000000pt" height="151.000000pt" viewBox="0 0 151.000000 151.000000"
 preserveAspectRatio="xMidYMid meet">
<metadata>
Created by potrace 1.11, written by Peter Selinger 2001-2013
</metadata>
<g transform="translate(0.000000,151.000000) scale(0.100000,-0.100000)"
fill="#000000" stroke="none">
<path d="M51 1279 c-7 -17 -10 -19 -10 -6 -1 10 -9 17 -21 17 -20 0 -21 -5
-18 -117 3 -107 5 -118 23 -123 19 -5 20 -13 20 -140 0 -74 -4 -138 -9 -142
-10 -7 -15 -514 -5 -530 9 -14 42 -17 56 -5 16 12 19 522 3 532 -6 4 -10 63
-10 146 0 132 1 139 20 139 22 0 22 -2 22 125 0 116 0 115 -17 115 -9 0 -15
-10 -16 -22 -1 -21 -2 -21 -6 -3 -8 34 -22 40 -32 14z m36 -61 c-3 -8 -6 -5
-6 6 -1 11 2 17 5 13 3 -3 4 -12 1 -19z m0 -40 c-3 -8 -6 -5 -6 6 -1 11 2 17
5 13 3 -3 4 -12 1 -19z m-12 -678 c0 -186 -3 -244 -13 -248 -9 -3 -12 51 -12
248 0 197 3 251 13 247 9 -3 12 -61 12 -247z"/>
<path d="M1211 1272 l-31 -30 0 -231 0 -231 27 0 c21 0 24 -3 15 -12 -9 -9
-12 -80 -12 -259 0 -136 3 -254 6 -263 7 -18 49 -22 60 -5 10 16 9 475 -1 524
-4 22 -8 147 -9 277 -1 267 -5 281 -55 230z m34 -223 c0 -205 0 -210 -22 -231
l-23 -21 0 214 c0 181 3 218 16 237 9 13 19 20 22 17 4 -4 7 -101 7 -216z m13
-550 c-2 -158 -7 -242 -13 -239 -10 5 -18 477 -8 493 18 29 23 -37 21 -254z"/>
<path d="M1362 1287 c-38 -22 -62 -67 -62 -117 0 -51 30 -109 61 -117 22 -6
21 1 23 -158 0 -66 -3 -123 -8 -126 -10 -8 -13 -510 -2 -527 13 -21 55 -14 61
11 6 23 0 399 -10 639 l-6 137 40 40 c40 40 46 59 41 121 -2 30 -23 72 -43 88
-22 19 -70 23 -95 9z m69 -17 c17 0 49 -65 49 -100 0 -71 -61 -126 -111 -99
-40 21 -60 103 -38 152 13 28 58 59 77 52 8 -3 18 -5 23 -5z m-16 -770 c0
-186 -3 -244 -12 -248 -10 -3 -13 51 -13 248 0 197 3 251 13 247 9 -3 12 -61
12 -247z"/>
<path d="M525 1191 c-310 -88 -460 -424 -316 -709 83 -164 238 -262 427 -268
244 -8 452 150 505 385 59 262 -110 534 -369 595 -80 18 -175 17 -247 -3z
m255 -21 c161 -43 300 -190 340 -359 26 -112 -3 -270 -69 -365 -173 -250 -521
-286 -732 -75 -190 188 -189 490 1 677 119 118 300 166 460 122z"/>
<path d="M580 1051 c-230 -48 -346 -311 -227 -513 58 -99 154 -157 273 -165
127 -9 238 45 311 150 117 171 48 412 -143 502 -55 26 -156 39 -214 26z m180
-53 c64 -27 108 -63 141 -117 61 -95 68 -199 19 -297 -136 -276 -537 -205
-576 102 -16 132 74 271 206 318 59 20 153 18 210 -6z"/>
</g>
</svg>
