<?xml version="1.0" encoding="utf-8"?>
<!-- Generator: Adobe Illustrator 17.1.0, SVG Export Plug-In . SVG Version: 6.00 Build 0)  -->
<!DOCTYPE svg PUBLIC "-//W3C//DTD SVG 1.1//EN" "http://www.w3.org/Graphics/SVG/1.1/DTD/svg11.dtd">
<svg version="1.1" id="Layer_1" xmlns="http://www.w3.org/2000/svg" xmlns:xlink="http://www.w3.org/1999/xlink" x="0px" y="0px"
	 viewBox="266.2 415.9 605.4 436.8" enable-background="new 266.2 415.9 605.4 436.8" xml:space="preserve">
<path fill="none" stroke="#FFFFFF" stroke-width="4" stroke-miterlimit="10" d="M833.5,416.9c-20.8,0-37.5,21.6-37.5,48.1
	c0,25.3,15.1,46,34.6,47.7v112.1c0,1.6,0,3.3,0.4,4.5c-4.5,1.2-7.7,5.3-7.7,9.8v195.2c0,5.7,4.5,10.2,10.2,10.2
	c5.7,0,10.2-4.5,10.2-10.2V639c0-4.5-2.9-8.6-7.3-9.8c0.4-1.2,0.4-2.9,0.4-4.5V512.7c19.2-2.4,33.8-23.2,33.8-47.7
	C870.6,438.5,853.9,416.9,833.5,416.9L833.5,416.9L833.5,416.9z M770.4,416.9c-0.4,0-0.8,0.4-1.6,1.2c-1.6-0.4-3.7,0.4-6.1,2.4
	l-5.3,4.5c-5.7,4.5-10.2,14.3-10.2,21.2v167.5c0,7.3,4.5,9.4,10.2,4.5l5.3-4.5c1.6-1.2,2.9-2.9,4.1-4.9v14.3c0,1.6,0,3.3,0.4,4.5
	c-4.1,1.6-6.9,5.3-6.9,9.8v196.4c0,5.7,4.5,10.2,10.2,10.2c5.7,0,10.2-4.5,10.2-10.2V637.4c0-4.9-3.7-9-8.1-10.2
	c0-1.2,0.4-2.9,0.4-4.5V426.3C773.6,421.8,772,416.9,770.4,416.9L770.4,416.9z M270.4,418.6c-1.6,0-3.3,2-3.3,4.1v80.3
	c0,1.6,0.4,2.9,1.2,3.3v0.4c0,0.8,0.8,1.6,1.6,1.6h14.7v116.9c0,1.2,0,2.4,0.4,3.7c-4.5,1.2-7.3,5.3-7.3,9.8v196.8
	c0,5.7,4.5,10.2,10.2,10.2c5.7,0,10.2-4.5,10.2-10.2V638.6c0-4.5-3.3-8.6-7.3-9.8c0-1.2,0.4-2.4,0.4-3.7V508.2h12.6
	c0.4,0,0.8-0.4,1.2-0.4l0,0c1.6,0,3.3-2,3.3-4.1v-80.3c0-2.4-1.2-4.1-3.3-4.1c-1.6,0-3.3,2-3.3,4.1v75.8h-10.6v-70.5
	c0-5.7-1.2-10.2-3.3-10.2c-1.6,0-3.3,4.5-3.3,10.2v70.5h-11.4V423C273.3,420.2,272.1,418.6,270.4,418.6L270.4,418.6z M528.8,453.2
	c-110,0-199.2,89.2-199.2,199.2s89.2,199.2,199.2,199.2S728,762.4,728,652.4C728,542.4,638.8,453.2,528.8,453.2L528.8,453.2z
	 M527.1,514.7c75.4,0,136.1,61.1,136.1,136.1l0,0c0,75.4-61.1,136.1-136.1,136.1S391,725.8,391,650.8
	C391,575.4,452.2,514.7,527.1,514.7L527.1,514.7z M526.7,520.8c-71.3,0-129.2,57.9-129.2,129.2s57.9,129.2,129.2,129.2
	S655.9,721.3,655.9,650C655.5,578.7,598,520.8,526.7,520.8L526.7,520.8z"/>
</svg>
